<svg xmlns="http://www.w3.org/2000/svg" viewBox="0 0 100 100">
  <defs>
    <linearGradient id="bg2" x1="0" y1="0" x2="1" y2="1">
      <stop offset="0%" stop-color="#1e3a6e"/>
      <stop offset="100%" stop-color="#0f172a"/>
    </linearGradient>
  </defs>
  <rect width="100" height="100" rx="18" fill="url(#bg2)"/>
  <rect x="14" y="76" width="58" height="6" rx="2" fill="#94a3b8"/>
  <rect x="18" y="70" width="50" height="6" rx="2" fill="#cbd5e1"/>
  <rect x="24" y="54" width="38" height="17" fill="#e2e8f0"/>
  <rect x="28" y="54" width="4" height="17" rx="1" fill="#b8c8dc"/>
  <rect x="37" y="54" width="4" height="17" rx="1" fill="#b8c8dc"/>
  <rect x="46" y="54" width="4" height="17" rx="1" fill="#b8c8dc"/>
  <rect x="55" y="54" width="4" height="17" rx="1" fill="#b8c8dc"/>
  <path d="M24 54 Q43 28 62 54Z" fill="#dde6f0"/>
  <path d="M30 54 Q43 34 56 54Z" fill="#ecf2f8"/>
  <rect x="39" y="44" width="8" height="10" rx="1" fill="#dde6f0"/>
  <ellipse cx="43" cy="44" rx="7" ry="3" fill="#cbd5e1"/>
  <rect x="41" y="30" width="4" height="14" rx="1" fill="#dde6f0"/>
  <ellipse cx="43" cy="30" rx="4" ry="2" fill="#cbd5e1"/>
  <line x1="43" y1="18" x2="43" y2="30" stroke="#94a3b8" stroke-width="1.5"/>
  <polygon points="43,18 53,21 43,24" fill="#ef4444"/>
  <rect x="58" y="56" width="30" height="22" rx="7" fill="#3b82f6"/>
  <polygon points="64,78 58,88 74,78" fill="#3b82f6"/>
  <circle cx="67" cy="67" r="2.8" fill="white"/>
  <circle cx="74" cy="67" r="2.8" fill="white"/>
  <circle cx="81" cy="67" r="2.8" fill="white"/>
</svg>
